<?xml version="1.0" encoding="UTF-8"?>
<svg id="Layer_1" data-name="Layer 1" xmlns="http://www.w3.org/2000/svg" width="578.42" height="142.7" xmlns:xlink="http://www.w3.org/1999/xlink" viewBox="0 0 578.42 142.7">
  <defs>
    <style>
      svg {
        image-rendering: pixelated;
      }

      .cls-1, .cls-2 {
        fill: #1d1d1b;
      }

      .cls-3 {
        fill: none;
        stroke: #1d1d1b;
        stroke-miterlimit: 10;
        stroke-width: 2px;
      }

      .cls-2 {
        font-family: QTEurotype, QTEurotype;
        font-size: 21.33px;
      }
    </style>
  </defs>
  <image width="32" height="32" transform="translate(475.28) scale(3.08)" xlink:href="../images/pixeljs.png"/>
  <image width="32" height="32" transform="translate(306.63 5.24) scale(3.08)" xlink:href="../images/pixelcss.png"/>
  <image width="32" height="32" transform="translate(155.73 5.24) scale(3.08)" xlink:href="../images/pixelhtml.png"/>
  <image width="32" height="32" transform="translate(0 5.24) scale(3.08)" xlink:href="../images/pixelplane.png"/>
  <text class="cls-2" transform="translate(178.61 133.85)"><tspan x="0" y="0">HTML</tspan></text>
  <text class="cls-2" transform="translate(337.15 133.85)"><tspan x="0" y="0">CSS</tspan></text>
  <text class="cls-2" transform="translate(513.35 133.85)"><tspan x="0" y="0">JS</tspan></text>
  <g>
    <line class="cls-3" x1="106.24" y1="54.58" x2="152.35" y2="54.58"/>
    <polygon class="cls-1" points="145.72 62.76 144.36 61.29 151.58 54.58 144.36 47.86 145.72 46.4 154.52 54.58 145.72 62.76"/>
  </g>
  <g>
    <line class="cls-3" x1="255.62" y1="54.58" x2="301.73" y2="54.58"/>
    <polygon class="cls-1" points="295.1 62.76 293.73 61.29 300.96 54.58 293.73 47.86 295.1 46.4 303.89 54.58 295.1 62.76"/>
  </g>
  <g>
    <line class="cls-3" x1="407.77" y1="54.58" x2="453.87" y2="54.58"/>
    <polygon class="cls-1" points="447.25 62.76 445.88 61.29 453.11 54.58 445.88 47.86 447.25 46.4 456.04 54.58 447.25 62.76"/>
  </g>
</svg>